Crickx.ufo
<glyph name="exclam" format="1">
  <advance width="328"/>
  <unicode hex="0021"/>
  <outline>
    <contour>
      <point x="210" y="178" type="line" smooth="no"/>
      <point x="73" y="178" type="line" smooth="no"/>
      <point x="139" y="643" type="line" smooth="no"/>
      <point x="278" y="660" type="line" smooth="no"/>
    </contour>
    <contour>
      <point x="180" y="0" type="line" smooth="no"/>
      <point x="45" y="-6" type="line" smooth="no"/>
      <point x="68" y="127" type="line" smooth="no"/>
      <point x="199" y="130" type="line" smooth="no"/>
    </contour>
  </outline>
</glyph>
<glyph name="numbersign" format="1">
  <advance width="574"/>
  <unicode hex="0023"/>
  <outline>
    <contour>
      <point x="258" y="254" type="line" smooth="no"/>
      <point x="253" y="183" type="line" smooth="no"/>
      <point x="322" y="190" type="line" smooth="no"/>
      <point x="328" y="259" type="line" smooth="no"/>
    </contour>
    <contour>
      <point x="160" y="456" type="line" smooth="no"/>
      <point x="274" y="467" type="line" smooth="no"/>
      <point x="267" y="371" type="line" smooth="no"/>
      <point x="339" y="378" type="line" smooth="no"/>
      <point x="347" y="456" type="line" smooth="no"/>
      <point x="460" y="467" type="line" smooth="no"/>
      <point x="454" y="389" type="line" smooth="no"/>
      <point x="530" y="396" type="line" smooth="no"/>
      <point x="516" y="273" type="line" smooth="no"/>
      <point x="445" y="268" type="line" smooth="no"/>
      <point x="441" y="201" type="line" smooth="no"/>
      <point x="530" y="209" type="line" smooth="no"/>
      <point x="516" y="86" type="line" smooth="no"/>
      <point x="432" y="80" type="line" smooth="no"/>
      <point x="427" y="12" type="line" smooth="no"/>
      <point x="304" y="-3" type="line" smooth="no"/>
      <point x="311" y="71" type="line" smooth="no"/>
      <point x="244" y="66" type="line" smooth="no"/>
      <point x="240" y="12" type="line" smooth="no"/>
      <point x="117" y="-3" type="line" smooth="no"/>
      <point x="123" y="57" type="line" smooth="no"/>
      <point x="61" y="53" type="line" smooth="no"/>
      <point x="72" y="166" type="line" smooth="no"/>
      <point x="134" y="172" type="line" smooth="no"/>
      <point x="141" y="245" type="line" smooth="no"/>
      <point x="61" y="239" type="line" smooth="no"/>
      <point x="72" y="353" type="line" smooth="no"/>
      <point x="151" y="360" type="line" smooth="no"/>
    </contour>
  </outline>
</glyph>
<glyph name="dollar" format="1">
  <advance width="476"/>
  <unicode hex="0024"/>
  <outline>
    <contour>
      <point x="124" y="7" type="line" smooth="no"/>
      <point x="83" y="19"/>
      <point x="58" y="42" type="qcurve" smooth="yes"/>
      <point x="37" y="62"/>
      <point x="37" y="77" type="qcurve" smooth="yes"/>
      <point x="37" y="90"/>
      <point x="56" y="210" type="qcurve" smooth="no"/>
      <point x="177" y="209" type="line" smooth="no"/>
      <point x="171" y="187"/>
      <point x="170" y="174" type="qcurve" smooth="no"/>
      <point x="170" y="136"/>
      <point x="207" y="136" type="qcurve" smooth="yes"/>
      <point x="261" y="136"/>
      <point x="261" y="223" type="qcurve" smooth="no"/>
      <point x="252" y="254"/>
      <point x="170" y="309" type="qcurve" smooth="yes"/>
      <point x="91" y="361"/>
      <point x="90" y="389" type="qcurve" smooth="no"/>
      <point x="94" y="425"/>
      <point x="110" y="503" type="qcurve" smooth="no"/>
      <point x="129" y="568"/>
      <point x="221" y="604" type="qcurve" smooth="no"/>
      <point x="232" y="688" type="line" smooth="no"/>
      <point x="371" y="705" type="line" smooth="no"/>
      <point x="355" y="608" type="line" smooth="no"/>
      <point x="427" y="583"/>
      <point x="440" y="525" type="qcurve" smooth="yes"/>
      <point x="446" y="494"/>
      <point x="439" y="432" type="qcurve" smooth="no"/>
      <point x="322" y="428" type="line" smooth="no"/>
      <point x="320" y="477"/>
      <point x="278" y="482" type="qcurve" smooth="no"/>
      <point x="255" y="482"/>
      <point x="222" y="445"/>
      <point x="222" y="430" type="qcurve" smooth="yes"/>
      <point x="222" y="397"/>
      <point x="350" y="317" type="line" smooth="no"/>
      <point x="399" y="277"/>
      <point x="409" y="217" type="qcurve" smooth="no"/>
      <point x="404" y="162"/>
      <point x="377" y="93" type="qcurve" smooth="yes"/>
      <point x="368" y="69"/>
      <point x="339" y="46" type="qcurve" smooth="yes"/>
      <point x="304" y="19"/>
      <point x="258" y="7" type="qcurve" smooth="no"/>
      <point x="247" y="-66" type="line" smooth="no"/>
      <point x="113" y="-74" type="line" smooth="no"/>
    </contour>
  </outline>
</glyph>
<glyph name="asterisk" format="1">
  <advance width="523"/>
  <unicode hex="002a"/>
  <outline>
    <contour>
      <point x="95" y="233" type="line" smooth="no"/>
      <point x="175" y="239" type="line" smooth="no"/>
      <point x="121" y="311" type="line" smooth="no"/>
      <point x="213" y="376" type="line" smooth="no"/>
      <point x="274" y="293" type="line" smooth="no"/>
      <point x="335" y="386" type="line" smooth="no"/>
      <point x="427" y="327" type="line" smooth="no"/>
      <point x="378" y="258" type="line" smooth="no"/>
      <point x="471" y="263" type="line" smooth="no"/>
      <point x="450" y="161" type="line" smooth="no"/>
      <point x="378" y="155" type="line" smooth="no"/>
      <point x="419" y="94" type="line" smooth="no"/>
      <point x="331" y="20" type="line" smooth="no"/>
      <point x="275" y="105" type="line" smooth="no"/>
      <point x="218" y="12" type="line" smooth="no"/>
      <point x="124" y="72" type="line" smooth="no"/>
      <point x="169" y="134" type="line" smooth="no"/>
      <point x="79" y="128" type="line" smooth="no"/>
    </contour>
  </outline>
</glyph>
<glyph name="period" format="1">
  <advance width="262"/>
  <unicode hex="002e"/>
  <outline>
    <contour>
      <point x="200" y="7" type="line" smooth="no"/>
      <point x="47" y="-4" type="line" smooth="no"/>
      <point x="67" y="141" type="line" smooth="no"/>
      <point x="219" y="146" type="line" smooth="no"/>
    </contour>
  </outline>
</glyph>
<glyph name="one" format="1">
  <advance width="441"/>
  <unicode hex="0031"/>
  <outline>
    <contour>
      <point x="273" y="-18" type="qcurve" smooth="no"/>
      <point x="220" y="-18"/>
      <point x="102" y="-17" type="qcurve" smooth="no"/>
      <point x="186" y="395" type="line" smooth="no"/>
      <point x="42" y="348" type="line" smooth="no"/>
      <point x="80" y="496" type="line" smooth="no"/>
      <point x="229" y="603"/>
      <point x="249" y="620" type="qcurve" smooth="no"/>
      <point x="413" y="615" type="line" smooth="no"/>
      <point x="342" y="223"/>
    </contour>
  </outline>
</glyph>
<glyph name="two" format="1">
  <advance width="538"/>
  <unicode hex="0032"/>
  <outline>
    <contour>
      <point x="422" y="312" type="qcurve" smooth="no"/>
      <point x="335" y="228" type="line" smooth="no"/>
      <point x="272" y="161"/>
      <point x="276" y="129" type="qcurve" smooth="no"/>
      <point x="297" y="124"/>
      <point x="434" y="148" type="qcurve" smooth="no"/>
      <point x="400" y="-14" type="line" smooth="no"/>
      <point x="21" y="-10" type="line" smooth="no"/>
      <point x="58" y="167"/>
      <point x="215" y="312" type="qcurve" smooth="no"/>
      <point x="292" y="372" type="line" smooth="no"/>
      <point x="343" y="414"/>
      <point x="343" y="442" type="qcurve" smooth="yes"/>
      <point x="343" y="456"/>
      <point x="313" y="476"/>
      <point x="303" y="476" type="qcurve" smooth="yes"/>
      <point x="257" y="476"/>
      <point x="229" y="393" type="qcurve" smooth="no"/>
      <point x="107" y="468" type="line" smooth="no"/>
      <point x="153" y="632"/>
      <point x="326" y="632" type="qcurve" smooth="yes"/>
      <point x="395" y="632"/>
      <point x="442" y="592" type="qcurve" smooth="yes"/>
      <point x="498" y="545"/>
      <point x="498" y="460" type="qcurve" smooth="yes"/>
      <point x="498" y="390"/>
    </contour>
  </outline>
</glyph>
<glyph name="three" format="1">
  <advance width="502"/>
  <unicode hex="0033"/>
  <outline>
    <contour>
      <point x="463" y="459" type="line" smooth="no"/>
      <point x="389" y="403" type="line" smooth="no"/>
      <point x="441" y="378"/>
      <point x="441" y="334" type="qcurve" smooth="no"/>
      <point x="429" y="224"/>
      <point x="406" y="111" type="qcurve" smooth="yes"/>
      <point x="378" y="-25"/>
      <point x="184" y="-25" type="qcurve" smooth="yes"/>
      <point x="99" y="-25"/>
      <point x="65" y="27" type="qcurve" smooth="yes"/>
      <point x="47" y="56"/>
      <point x="47" y="94" type="qcurve" smooth="yes"/>
      <point x="47" y="103"/>
      <point x="61" y="192" type="qcurve" smooth="no"/>
      <point x="194" y="197" type="line" smooth="no"/>
      <point x="191" y="183"/>
      <point x="191" y="172" type="qcurve" smooth="yes"/>
      <point x="191" y="140"/>
      <point x="216" y="137" type="qcurve" smooth="no"/>
      <point x="227" y="137"/>
      <point x="235" y="140" type="qcurve" smooth="yes"/>
      <point x="256" y="146"/>
      <point x="261" y="162" type="qcurve" smooth="no"/>
      <point x="277" y="235"/>
      <point x="279" y="253" type="qcurve" smooth="yes"/>
      <point x="280" y="270"/>
      <point x="258" y="291"/>
      <point x="241" y="291" type="qcurve" smooth="yes"/>
      <point x="232" y="291"/>
      <point x="224" y="289" type="qcurve" smooth="yes"/>
      <point x="203" y="285"/>
      <point x="188" y="273" type="qcurve" smooth="no"/>
      <point x="93" y="357" type="line" smooth="no"/>
      <point x="232" y="466" type="line" smooth="no"/>
      <point x="101" y="454" type="line" smooth="no"/>
      <point x="125" y="613" type="line" smooth="no"/>
      <point x="404" y="605"/>
      <point x="480" y="607" type="qcurve" smooth="no"/>
    </contour>
  </outline>
</glyph>
<glyph name="four" format="1">
  <advance width="548"/>
  <unicode hex="0034"/>
  <outline>
    <contour>
      <point x="299" y="340" type="line" smooth="no"/>
      <point x="211" y="229" type="line" smooth="no"/>
      <point x="283" y="229" type="line" smooth="no"/>
    </contour>
    <contour>
      <point x="44" y="100" type="line" smooth="no"/>
      <point x="65" y="239" type="line" smooth="no"/>
      <point x="329" y="595" type="line" smooth="no"/>
      <point x="513" y="604" type="line" smooth="no"/>
      <point x="456" y="284"/>
      <point x="452" y="214" type="qcurve" smooth="no"/>
      <point x="509" y="214" type="line" smooth="no"/>
      <point x="491" y="113" type="line" smooth="no"/>
      <point x="443" y="116"/>
      <point x="430" y="112" type="qcurve" smooth="no"/>
      <point x="425" y="92"/>
      <point x="407" y="-8" type="qcurve" smooth="no"/>
      <point x="240" y="-18" type="line" smooth="no"/>
      <point x="249" y="22"/>
      <point x="263" y="105" type="qcurve" smooth="no"/>
    </contour>
  </outline>
</glyph>
<glyph name="six" format="1">
  <advance width="472"/>
  <unicode hex="0036"/>
  <outline>
    <contour>
      <point x="207" y="171" type="qcurve" smooth="no"/>
      <point x="207" y="131"/>
      <point x="243" y="131" type="qcurve" smooth="yes"/>
      <point x="289" y="131"/>
      <point x="289" y="185" type="qcurve" smooth="no"/>
      <point x="282" y="235"/>
      <point x="215" y="229" type="qcurve" smooth="no"/>
      <point x="213" y="209"/>
    </contour>
    <contour>
      <point x="318" y="322" type="qcurve" smooth="no"/>
      <point x="342" y="321"/>
      <point x="362" y="313" type="qcurve" smooth="yes"/>
      <point x="410" y="295"/>
      <point x="425" y="249" type="qcurve" smooth="no"/>
      <point x="419" y="206" type="line" smooth="no"/>
      <point x="407" y="123" type="line" smooth="no"/>
      <point x="392" y="72"/>
      <point x="338" y="30" type="qcurve" smooth="yes"/>
      <point x="275" y="-18"/>
      <point x="195" y="-18" type="qcurve" smooth="no"/>
      <point x="34" y="-9"/>
      <point x="39" y="103" type="qcurve" smooth="no"/>
      <point x="71" y="326"/>
      <point x="100" y="462" type="qcurve" smooth="no"/>
      <point x="113" y="542"/>
      <point x="185" y="579" type="qcurve" smooth="yes"/>
      <point x="238" y="606"/>
      <point x="308" y="606" type="qcurve" smooth="yes"/>
      <point x="394" y="606"/>
      <point x="431" y="568" type="qcurve" smooth="yes"/>
      <point x="455" y="544"/>
      <point x="455" y="510" type="qcurve" smooth="yes"/>
      <point x="455" y="497"/>
      <point x="440" y="407" type="qcurve" smooth="no"/>
      <point x="315" y="393" type="line" smooth="no"/>
      <point x="318" y="413"/>
      <point x="319" y="423" type="qcurve" smooth="no"/>
      <point x="319" y="458"/>
      <point x="292" y="458" type="qcurve" smooth="yes"/>
      <point x="270" y="458"/>
      <point x="255" y="444" type="qcurve" smooth="yes"/>
      <point x="243" y="434"/>
      <point x="241" y="423" type="qcurve" smooth="yes"/>
      <point x="237" y="382"/>
      <point x="227" y="304" type="qcurve" smooth="no"/>
      <point x="264" y="318"/>
    </contour>
  </outline>
</glyph>
<glyph name="seven" format="1">
  <advance width="445"/>
  <unicode hex="0037"/>
  <outline>
    <contour>
      <point x="434" y="470" type="line" smooth="no"/>
      <point x="159" y="-11" type="line" smooth="no"/>
      <point x="92" y="-9"/>
      <point x="26" y="-8" type="qcurve" smooth="no"/>
      <point x="-17" y="-6"/>
      <point x="-27" y="-2" type="qcurve" smooth="no"/>
      <point x="214" y="452" type="line" smooth="no"/>
      <point x="62" y="450" type="line" smooth="no"/>
      <point x="78" y="610" type="line" smooth="no"/>
      <point x="439" y="604" type="line" smooth="no"/>
    </contour>
  </outline>
</glyph>
<glyph name="nine" format="1">
  <advance width="486"/>
  <unicode hex="0039"/>
  <outline>
    <contour>
      <point x="287" y="406" type="line" smooth="yes"/>
      <point x="290" y="425"/>
      <point x="266" y="449"/>
      <point x="251" y="449" type="qcurve" smooth="yes"/>
      <point x="231" y="449"/>
      <point x="198" y="419"/>
      <point x="198" y="399" type="qcurve" smooth="yes"/>
      <point x="198" y="346"/>
      <point x="243" y="346" type="qcurve" smooth="no"/>
      <point x="253" y="347"/>
      <point x="279" y="353" type="qcurve" smooth="no"/>
    </contour>
    <contour>
      <point x="200" y="257" type="qcurve" smooth="no"/>
      <point x="121" y="257"/>
      <point x="86" y="296" type="qcurve" smooth="yes"/>
      <point x="66" y="319"/>
      <point x="64" y="348" type="qcurve" smooth="no"/>
      <point x="63" y="379"/>
      <point x="96" y="523"/>
      <point x="162" y="564" type="qcurve" smooth="yes"/>
      <point x="221" y="601"/>
      <point x="297" y="601" type="qcurve" smooth="yes"/>
      <point x="394" y="601"/>
      <point x="432" y="545" type="qcurve" smooth="yes"/>
      <point x="456" y="510"/>
      <point x="452" y="470" type="qcurve" smooth="yes"/>
      <point x="449" y="446"/>
      <point x="428" y="296" type="qcurve" smooth="yes"/>
      <point x="406" y="141"/>
      <point x="401" y="120" type="qcurve" smooth="yes"/>
      <point x="393" y="79"/>
      <point x="352" y="39" type="qcurve" smooth="yes"/>
      <point x="291" y="-20"/>
      <point x="195" y="-20" type="qcurve" smooth="yes"/>
      <point x="100" y="-20"/>
      <point x="58" y="31" type="qcurve" smooth="no"/>
      <point x="33" y="63"/>
      <point x="33" y="100" type="qcurve" smooth="yes"/>
      <point x="33" y="112"/>
      <point x="41" y="174" type="qcurve" smooth="no"/>
      <point x="174" y="186" type="line" smooth="no"/>
      <point x="170" y="168"/>
      <point x="170" y="157" type="qcurve" smooth="yes"/>
      <point x="170" y="147"/>
      <point x="187" y="127"/>
      <point x="201" y="127" type="qcurve" smooth="yes"/>
      <point x="242" y="127"/>
      <point x="248" y="169" type="qcurve" smooth="yes"/>
      <point x="249" y="172"/>
      <point x="265" y="270" type="qcurve" smooth="no"/>
      <point x="237" y="259"/>
    </contour>
  </outline>
</glyph>
<glyph name="colon" format="1">
  <advance width="281"/>
  <unicode hex="003a"/>
  <outline>
    <contour>
      <point x="220" y="238" type="line" smooth="no"/>
      <point x="67" y="228" type="line" smooth="no"/>
      <point x="87" y="373" type="line" smooth="no"/>
      <point x="239" y="378" type="line" smooth="no"/>
    </contour>
    <contour>
      <point x="190" y="7" type="line" smooth="no"/>
      <point x="37" y="-4" type="line" smooth="no"/>
      <point x="58" y="141" type="line" smooth="no"/>
      <point x="209" y="146" type="line" smooth="no"/>
    </contour>
  </outline>
</glyph>
<glyph name="semicolon" format="1">
  <advance width="281"/>
  <unicode hex="003b"/>
  <outline>
    <contour>
      <point x="239" y="378" type="line" smooth="no"/>
      <point x="220" y="238" type="line" smooth="no"/>
      <point x="67" y="228" type="line" smooth="no"/>
      <point x="87" y="373" type="line" smooth="no"/>
    </contour>
    <contour>
      <point x="210" y="-48" type="qcurve" smooth="no"/>
      <point x="196" y="-88"/>
      <point x="180" y="-110" type="qcurve" smooth="no"/>
      <point x="134" y="-116"/>
      <point x="107" y="-113" type="qcurve" smooth="no"/>
      <point x="131" y="5" type="line" smooth="no"/>
      <point x="114" y="4"/>
      <point x="48" y="4" type="qcurve" smooth="no"/>
      <point x="49" y="57"/>
      <point x="57" y="152" type="qcurve" smooth="no"/>
      <point x="105" y="153"/>
      <point x="210" y="160" type="qcurve" smooth="no"/>
      <point x="209" y="144"/>
      <point x="216" y="45" type="qcurve" smooth="no"/>
      <point x="215" y="8"/>
    </contour>
  </outline>
</glyph>
<glyph name="greater" format="1">
  <advance width="423"/>
  <unicode hex="003e"/>
  <outline>
    <contour>
      <point x="110" y="272" type="line" smooth="no"/>
      <point x="130" y="458" type="line" smooth="no"/>
      <point x="378" y="194" type="line" smooth="no"/>
      <point x="67" y="-12" type="line" smooth="no"/>
      <point x="79" y="153" type="line" smooth="no"/>
      <point x="164" y="213" type="line" smooth="no"/>
    </contour>
  </outline>
</glyph>
<glyph name="at" format="1">
  <advance width="905"/>
  <unicode hex="0040"/>
  <outline>
    <contour>
      <point x="401" y="-37" type="qcurve" smooth="yes"/>
      <point x="157" y="-40"/>
      <point x="113" y="224" type="qcurve" smooth="no"/>
      <point x="109" y="300"/>
      <point x="121" y="348" type="qcurve" smooth="no"/>
      <point x="162" y="498"/>
      <point x="248" y="576" type="qcurve" smooth="yes"/>
      <point x="313" y="635"/>
      <point x="405" y="652" type="qcurve" smooth="yes"/>
      <point x="439" y="658"/>
      <point x="532" y="659" type="qcurve" smooth="yes"/>
      <point x="634" y="661"/>
      <point x="706" y="613" type="qcurve" smooth="no"/>
      <point x="782" y="560"/>
      <point x="812" y="458" type="qcurve" smooth="no"/>
      <point x="821" y="394"/>
      <point x="821" y="365" type="qcurve" smooth="yes"/>
      <point x="821" y="333"/>
      <point x="815" y="303" type="qcurve" smooth="yes"/>
      <point x="790" y="186"/>
      <point x="737" y="144" type="qcurve" smooth="yes"/>
      <point x="700" y="114"/>
      <point x="641" y="118" type="qcurve" smooth="yes"/>
      <point x="592" y="121"/>
      <point x="542" y="159" type="qcurve" smooth="no"/>
      <point x="512" y="148"/>
      <point x="417" y="131"/>
      <point x="399" y="131" type="qcurve" smooth="yes"/>
      <point x="352" y="132"/>
      <point x="293" y="197"/>
      <point x="293" y="245" type="qcurve" smooth="yes"/>
      <point x="293" y="263"/>
      <point x="298" y="282" type="qcurve" smooth="yes"/>
      <point x="321" y="375"/>
      <point x="371" y="415" type="qcurve" smooth="no"/>
      <point x="430" y="454"/>
      <point x="509" y="455" type="qcurve" smooth="yes"/>
      <point x="511" y="455"/>
      <point x="662" y="452" type="qcurve" smooth="no"/>
      <point x="651" y="378"/>
      <point x="634" y="274" type="qcurve" smooth="yes"/>
      <point x="627" y="236"/>
      <point x="657" y="236" type="qcurve" smooth="yes"/>
      <point x="678" y="236"/>
      <point x="692" y="317" type="qcurve" smooth="yes"/>
      <point x="698" y="355"/>
      <point x="698" y="385" type="qcurve" smooth="yes"/>
      <point x="698" y="461"/>
      <point x="615" y="531"/>
      <point x="523" y="530" type="qcurve" smooth="yes"/>
      <point x="414" y="529"/>
      <point x="360" y="495" type="qcurve" smooth="no"/>
      <point x="287" y="451"/>
      <point x="257" y="328" type="qcurve" smooth="yes"/>
      <point x="249" y="294"/>
      <point x="249" y="263" type="qcurve" smooth="yes"/>
      <point x="249" y="175"/>
      <point x="310" y="123" type="qcurve" smooth="no"/>
      <point x="365" y="74"/>
      <point x="446" y="74" type="qcurve" smooth="yes"/>
      <point x="460" y="74"/>
      <point x="484" y="85" type="qcurve" smooth="yes"/>
      <point x="505" y="95"/>
      <point x="512" y="103" type="qcurve" smooth="no"/>
      <point x="580" y="53" type="line" smooth="no"/>
      <point x="508" y="-36"/>
    </contour>
    <contour>
      <point x="493" y="364" type="qcurve" smooth="yes"/>
      <point x="478" y="363"/>
      <point x="472" y="358" type="qcurve" smooth="yes"/>
      <point x="455" y="343"/>
      <point x="441" y="287" type="qcurve" smooth="yes"/>
      <point x="437" y="268"/>
      <point x="437" y="255" type="qcurve" smooth="yes"/>
      <point x="437" y="235"/>
      <point x="447" y="229" type="qcurve" smooth="yes"/>
      <point x="449" y="228"/>
      <point x="465" y="225" type="qcurve" smooth="yes"/>
      <point x="472" y="224"/>
      <point x="510" y="235"/>
      <point x="511" y="241" type="qcurve" smooth="yes"/>
      <point x="518" y="280"/>
      <point x="536" y="356" type="qcurve" smooth="no"/>
      <point x="534" y="358"/>
      <point x="503" y="364"/>
    </contour>
  </outline>
</glyph>
<glyph name="B" format="1">
  <advance width="565"/>
  <unicode hex="0042"/>
  <outline>
    <contour>
      <point x="358" y="455" type="qcurve" smooth="yes"/>
      <point x="358" y="473"/>
      <point x="332" y="497"/>
      <point x="314" y="497" type="qcurve" smooth="yes"/>
      <point x="281" y="497" type="line" smooth="no"/>
      <point x="262" y="385" type="line" smooth="no"/>
      <point x="313" y="389"/>
      <point x="340" y="422" type="qcurve" smooth="no"/>
      <point x="358" y="442"/>
    </contour>
    <contour>
      <point x="222" y="155" type="line" smooth="no"/>
      <point x="247" y="153"/>
      <point x="297" y="157" type="qcurve" smooth="no"/>
      <point x="337" y="167"/>
      <point x="337" y="210" type="qcurve" smooth="yes"/>
      <point x="337" y="222"/>
      <point x="323" y="235" type="qcurve" smooth="yes"/>
      <point x="297" y="257"/>
      <point x="239" y="254" type="qcurve" smooth="no"/>
    </contour>
    <contour>
      <point x="427" y="633" type="line" smooth="no"/>
      <point x="473" y="623"/>
      <point x="503" y="586" type="qcurve" smooth="yes"/>
      <point x="537" y="544"/>
      <point x="537" y="483" type="qcurve" smooth="no"/>
      <point x="534" y="456"/>
      <point x="523" y="431" type="qcurve" smooth="yes"/>
      <point x="496" y="369"/>
      <point x="430" y="322" type="qcurve" smooth="no"/>
      <point x="517" y="264"/>
      <point x="524" y="150" type="qcurve" smooth="no"/>
      <point x="524" y="86"/>
      <point x="464" y="40" type="qcurve" smooth="no"/>
      <point x="427" y="13"/>
      <point x="382" y="-1" type="qcurve" smooth="no"/>
      <point x="28" y="-1" type="line" smooth="no"/>
      <point x="143" y="628" type="line" smooth="no"/>
      <point x="304" y="630" type="line" smooth="no"/>
    </contour>
  </outline>
</glyph>
<glyph name="C" format="1">
  <advance width="476"/>
  <unicode hex="0043"/>
  <outline>
    <contour>
      <point x="435" y="411" type="line" smooth="no"/>
      <point x="300" y="407" type="line" smooth="no"/>
      <point x="301" y="417"/>
      <point x="301" y="426" type="qcurve" smooth="yes"/>
      <point x="301" y="477"/>
      <point x="269" y="477" type="qcurve" smooth="yes"/>
      <point x="240" y="477"/>
      <point x="222" y="444" type="qcurve" smooth="no"/>
      <point x="182" y="228" type="line" smooth="yes"/>
      <point x="179" y="209"/>
      <point x="196" y="181"/>
      <point x="214" y="181" type="qcurve" smooth="yes"/>
      <point x="269" y="181"/>
      <point x="276" y="271" type="qcurve" smooth="no"/>
      <point x="307" y="273"/>
      <point x="415" y="279" type="qcurve" smooth="no"/>
      <point x="414" y="267"/>
      <point x="409" y="240" type="qcurve" smooth="yes"/>
      <point x="366" y="13"/>
      <point x="190" y="13" type="qcurve" smooth="yes"/>
      <point x="104" y="13"/>
      <point x="60" y="58" type="qcurve" smooth="yes"/>
      <point x="28" y="91"/>
      <point x="28" y="129" type="qcurve" smooth="yes"/>
      <point x="28" y="165"/>
      <point x="49" y="295" type="qcurve" smooth="yes"/>
      <point x="73" y="440"/>
      <point x="116" y="565"/>
      <point x="183" y="603" type="qcurve" smooth="yes"/>
      <point x="244" y="638"/>
      <point x="311" y="638" type="qcurve" smooth="no"/>
      <point x="350" y="635"/>
      <point x="378" y="621" type="qcurve" smooth="yes"/>
      <point x="445" y="590"/>
      <point x="450" y="510" type="qcurve" smooth="no"/>
    </contour>
  </outline>
</glyph>
<glyph name="F" format="1">
  <advance width="473"/>
  <unicode hex="0046"/>
  <outline>
    <contour>
      <point x="417" y="498" type="line" smooth="no"/>
      <point x="272" y="494" type="line" smooth="no"/>
      <point x="257" y="390" type="line" smooth="no"/>
      <point x="401" y="393" type="line" smooth="no"/>
      <point x="381" y="258" type="line" smooth="no"/>
      <point x="234" y="256" type="line" smooth="no"/>
      <point x="189" y="3" type="line" smooth="no"/>
      <point x="37" y="-1" type="line" smooth="no"/>
      <point x="107" y="415"/>
      <point x="139" y="639" type="qcurve" smooth="no"/>
      <point x="163" y="639"/>
      <point x="435" y="637" type="qcurve" smooth="no"/>
    </contour>
  </outline>
</glyph>
<glyph name="K" format="1">
  <advance width="550"/>
  <unicode hex="004b"/>
  <outline>
    <contour>
      <point x="327" y="245" type="line" smooth="no"/>
      <point x="465" y="1" type="line" smooth="no"/>
      <point x="308" y="-2" type="line" smooth="no"/>
      <point x="218" y="175" type="line" smooth="no"/>
      <point x="177" y="-2" type="line" smooth="no"/>
      <point x="20" y="-5" type="line" smooth="no"/>
      <point x="153" y="604" type="line" smooth="no"/>
      <point x="312" y="597" type="line" smooth="no"/>
      <point x="259" y="371" type="line" smooth="no"/>
      <point x="460" y="571" type="line" smooth="no"/>
      <point x="531" y="469" type="line" smooth="no"/>
    </contour>
  </outline>
</glyph>
<glyph name="L" format="1">
  <advance width="406"/>
  <unicode hex="004c"/>
  <outline>
    <contour>
      <point x="335" y="-1" type="line" smooth="no"/>
      <point x="28" y="-9" type="line" smooth="no"/>
      <point x="136" y="617" type="line" smooth="no"/>
      <point x="305" y="621" type="line" smooth="no"/>
      <point x="227" y="152" type="line" smooth="no"/>
      <point x="366" y="155" type="line" smooth="no"/>
    </contour>
  </outline>
</glyph>
<glyph name="M" format="1">
  <advance width="631"/>
  <unicode hex="004d"/>
  <outline>
    <contour>
      <point x="488" y="-1" type="line" smooth="no"/>
      <point x="326" y="-4" type="line" smooth="no"/>
      <point x="372" y="299" type="line" smooth="no"/>
      <point x="281" y="212" type="line" smooth="no"/>
      <point x="235" y="282" type="line" smooth="no"/>
      <point x="190" y="-7" type="line" smooth="no"/>
      <point x="28" y="-8" type="line" smooth="no"/>
      <point x="135" y="625" type="line" smooth="no"/>
      <point x="272" y="630" type="line" smooth="no"/>
      <point x="341" y="466" type="line" smooth="no"/>
      <point x="434" y="633" type="line" smooth="no"/>
      <point x="593" y="637" type="line" smooth="no"/>
    </contour>
  </outline>
</glyph>
<glyph name="P" format="1">
  <advance width="489"/>
  <unicode hex="0050"/>
  <outline>
    <contour>
      <point x="179" y="0" type="qcurve" smooth="no"/>
      <point x="145" y="-1"/>
      <point x="28" y="-4" type="qcurve" smooth="no"/>
      <point x="129" y="613" type="line" smooth="no"/>
      <point x="233" y="615"/>
      <point x="334" y="615" type="qcurve" smooth="no"/>
      <point x="388" y="617"/>
      <point x="429" y="572" type="qcurve" smooth="yes"/>
      <point x="472" y="524"/>
      <point x="472" y="450" type="qcurve" smooth="yes"/>
      <point x="472" y="355"/>
      <point x="375" y="282" type="qcurve" smooth="no"/>
      <point x="293" y="219"/>
      <point x="210" y="212" type="qcurve" smooth="no"/>
      <point x="193" y="102"/>
    </contour>
    <contour>
      <point x="345" y="433" type="qcurve" smooth="yes"/>
      <point x="345" y="481"/>
      <point x="290" y="481" type="qcurve" smooth="yes"/>
      <point x="276" y="481"/>
      <point x="259" y="477" type="qcurve" smooth="no"/>
      <point x="246" y="419"/>
      <point x="230" y="327" type="qcurve" smooth="no"/>
      <point x="294" y="350"/>
      <point x="326" y="393" type="qcurve" smooth="yes"/>
      <point x="345" y="418"/>
    </contour>
  </outline>
</glyph>
<glyph name="V" format="1">
  <advance width="570"/>
  <unicode hex="0056"/>
  <outline>
    <contour>
      <point x="285" y="6" type="line" smooth="no"/>
      <point x="82" y="1" type="line" smooth="no"/>
      <point x="65" y="630" type="line" smooth="no"/>
      <point x="229" y="633" type="line" smooth="no"/>
      <point x="236" y="261" type="line" smooth="no"/>
      <point x="440" y="636" type="line" smooth="no"/>
      <point x="608" y="640" type="line" smooth="no"/>
    </contour>
  </outline>
</glyph>
<glyph name="W" format="1">
  <advance width="723"/>
  <unicode hex="0057"/>
  <outline>
    <contour>
      <point x="442" y="8" type="line" smooth="no"/>
      <point x="330" y="5" type="line" smooth="no"/>
      <point x="323" y="165" type="line" smooth="no"/>
      <point x="225" y="2" type="line" smooth="no"/>
      <point x="105" y="-4" type="line" smooth="no"/>
      <point x="68" y="636" type="line" smooth="no"/>
      <point x="230" y="639" type="line" smooth="no"/>
      <point x="241" y="411" type="line" smooth="no"/>
      <point x="364" y="640" type="line" smooth="no"/>
      <point x="471" y="644" type="line" smooth="no"/>
      <point x="476" y="425" type="line" smooth="no"/>
      <point x="595" y="644" type="line" smooth="no"/>
      <point x="759" y="649" type="line" smooth="no"/>
    </contour>
  </outline>
</glyph>
<glyph name="Y" format="1">
  <advance width="548"/>
  <unicode hex="0059"/>
  <outline>
    <contour>
      <point x="338" y="291" type="line" smooth="no"/>
      <point x="315" y="4" type="line" smooth="no"/>
      <point x="229" y="6"/>
      <point x="133" y="-1" type="qcurve" smooth="no"/>
      <point x="183" y="363" type="line" smooth="no"/>
      <point x="43" y="639" type="line" smooth="no"/>
      <point x="214" y="640" type="line" smooth="no"/>
      <point x="276" y="489" type="line" smooth="no"/>
      <point x="365" y="640" type="line" smooth="no"/>
      <point x="554" y="638" type="line" smooth="no"/>
    </contour>
  </outline>
</glyph>
<glyph name="backslash" format="1">
  <advance width="494"/>
  <unicode hex="005c"/>
  <outline>
    <contour>
      <point x="48" y="614" type="line" smooth="no"/>
      <point x="189" y="648" type="line" smooth="no"/>
      <point x="440" y="26" type="line" smooth="no"/>
      <point x="300" y="-22" type="line" smooth="no"/>
    </contour>
  </outline>
</glyph>
<glyph name="bracketright" format="1">
  <advance width="352"/>
  <unicode hex="005d"/>
  <outline>
    <contour>
      <point x="44" y="-51" type="qcurve" smooth="no"/>
      <point x="70" y="110" type="line" smooth="no"/>
      <point x="110" y="110"/>
      <point x="119" y="168" type="qcurve" smooth="yes"/>
      <point x="166" y="501" type="line" smooth="yes"/>
      <point x="167" y="512"/>
      <point x="167" y="521" type="qcurve" smooth="yes"/>
      <point x="167" y="561"/>
      <point x="135" y="571" type="qcurve" smooth="no"/>
      <point x="154" y="732" type="line" smooth="no"/>
      <point x="309" y="686"/>
      <point x="309" y="555" type="qcurve" smooth="yes"/>
      <point x="309" y="544"/>
      <point x="308" y="533" type="qcurve" smooth="yes"/>
      <point x="247" y="98" type="line" smooth="no"/>
      <point x="230" y="-1"/>
      <point x="135" y="-36" type="qcurve" smooth="yes"/>
      <point x="96" y="-50"/>
    </contour>
  </outline>
</glyph>
<glyph name="asciicircum" format="1">
  <advance width="578"/>
  <unicode hex="005e"/>
  <outline>
    <contour>
      <point x="198" y="347" type="line" smooth="no"/>
      <point x="57" y="339" type="line" smooth="no"/>
      <point x="321" y="594" type="line" smooth="no"/>
      <point x="529" y="355" type="line" smooth="no"/>
      <point x="406" y="340" type="line" smooth="no"/>
      <point x="313" y="432" type="line" smooth="no"/>
    </contour>
  </outline>
</glyph>
<glyph name="underscore" format="1">
  <advance width="573"/>
  <unicode hex="005f"/>
  <outline>
    <contour>
      <point x="519" y="-8" type="line" smooth="no"/>
      <point x="504" y="-140" type="line" smooth="no"/>
      <point x="61" y="-159" type="line" smooth="no"/>
      <point x="72" y="-36" type="line" smooth="no"/>
    </contour>
  </outline>
</glyph>
<glyph name="e" format="1">
  <advance width="434"/>
  <unicode hex="0065"/>
  <outline>
    <contour>
      <point x="390" y="501" type="line" smooth="no"/>
      <point x="256" y="496" type="line" smooth="no"/>
      <point x="238" y="380" type="line" smooth="no"/>
      <point x="371" y="384" type="line" smooth="no"/>
      <point x="351" y="260" type="line" smooth="no"/>
      <point x="214" y="256" type="line" smooth="no"/>
      <point x="201" y="140" type="line" smooth="no"/>
      <point x="332" y="143" type="line" smooth="no"/>
      <point x="305" y="4" type="line" smooth="no"/>
      <point x="30" y="1" type="line" smooth="no"/>
      <point x="55" y="137"/>
      <point x="130" y="632" type="qcurve" smooth="no"/>
      <point x="406" y="634" type="line" smooth="no"/>
    </contour>
  </outline>
</glyph>
<glyph name="i" format="1">
  <advance width="307"/>
  <unicode hex="0069"/>
  <outline>
    <contour>
      <point x="183" y="-3" type="line" smooth="no"/>
      <point x="41" y="-3" type="line" smooth="no"/>
      <point x="131" y="623" type="line" smooth="no"/>
      <point x="277" y="629" type="line" smooth="no"/>
    </contour>
  </outline>
</glyph>
<glyph name="j" format="1">
  <advance width="508"/>
  <unicode hex="006a"/>
  <outline>
    <contour>
      <point x="392" y="147" type="qcurve" smooth="no"/>
      <point x="348" y="-19"/>
      <point x="195" y="-19" type="qcurve" smooth="yes"/>
      <point x="20" y="-19"/>
      <point x="8" y="92" type="qcurve" smooth="yes"/>
      <point x="7" y="103"/>
      <point x="7" y="116" type="qcurve" smooth="yes"/>
      <point x="7" y="162"/>
      <point x="31" y="255" type="qcurve" smooth="no"/>
      <point x="159" y="283" type="line" smooth="no"/>
      <point x="141" y="208"/>
      <point x="140" y="181" type="qcurve" smooth="yes"/>
      <point x="140" y="162"/>
      <point x="157" y="148" type="qcurve" smooth="yes"/>
      <point x="171" y="137"/>
      <point x="188" y="137" type="qcurve" smooth="yes"/>
      <point x="206" y="137"/>
      <point x="230" y="158" type="qcurve" smooth="no"/>
      <point x="235" y="167"/>
      <point x="242" y="201" type="qcurve" smooth="yes"/>
      <point x="258" y="282"/>
      <point x="284" y="475" type="qcurve" smooth="no"/>
      <point x="181" y="471" type="line" smooth="no"/>
      <point x="197" y="598" type="line" smooth="no"/>
      <point x="462" y="601" type="line" smooth="no"/>
      <point x="413" y="241"/>
    </contour>
  </outline>
</glyph>
<glyph name="k" format="1">
  <advance width="584"/>
  <unicode hex="006b"/>
  <outline>
    <contour>
      <point x="144" y="629" type="line" smooth="no"/>
      <point x="304" y="632" type="line" smooth="no"/>
      <point x="237" y="256" type="line" smooth="no"/>
      <point x="277" y="266"/>
      <point x="296" y="280" type="qcurve" smooth="yes"/>
      <point x="331" y="308"/>
      <point x="352" y="373" type="qcurve" smooth="no"/>
      <point x="369" y="433"/>
      <point x="396" y="630" type="qcurve" smooth="no"/>
      <point x="553" y="635" type="line" smooth="no"/>
      <point x="510" y="378"/>
      <point x="501" y="342" type="qcurve" smooth="no"/>
      <point x="476" y="262"/>
      <point x="375" y="206" type="qcurve" smooth="no"/>
      <point x="467" y="1" type="line" smooth="no"/>
      <point x="300" y="2" type="line" smooth="no"/>
      <point x="262" y="150" type="line" smooth="no"/>
      <point x="210" y="128" type="line" smooth="no"/>
      <point x="184" y="-3" type="line" smooth="no"/>
      <point x="26" y="-2" type="line" smooth="no"/>
    </contour>
  </outline>
</glyph>
<glyph name="u" format="1">
  <advance width="528"/>
  <unicode hex="0075"/>
  <outline>
    <contour>
      <point x="423" y="141" type="qcurve" smooth="yes"/>
      <point x="415" y="91"/>
      <point x="364" y="51" type="qcurve" smooth="yes"/>
      <point x="307" y="7"/>
      <point x="227" y="7" type="qcurve" smooth="yes"/>
      <point x="113" y="7"/>
      <point x="69" y="78" type="qcurve" smooth="yes"/>
      <point x="46" y="115"/>
      <point x="46" y="166" type="qcurve" smooth="yes"/>
      <point x="46" y="177"/>
      <point x="107" y="626" type="qcurve" smooth="no"/>
      <point x="253" y="628" type="line" smooth="no"/>
      <point x="224" y="399"/>
      <point x="215" y="294" type="qcurve" smooth="no"/>
      <point x="214" y="278" type="line" smooth="yes"/>
      <point x="212" y="255"/>
      <point x="212" y="238" type="qcurve" smooth="yes"/>
      <point x="212" y="167"/>
      <point x="256" y="167" type="qcurve" smooth="yes"/>
      <point x="289" y="167"/>
      <point x="298" y="237" type="qcurve" smooth="yes"/>
      <point x="350" y="630" type="line" smooth="no"/>
      <point x="499" y="633" type="line" smooth="no"/>
      <point x="426" y="158" type="line" smooth="yes"/>
      <point x="424" y="146"/>
    </contour>
  </outline>
</glyph>
<glyph name="v" format="1">
  <advance width="540"/>
  <unicode hex="0076"/>
  <outline>
    <contour>
      <point x="286" y="6" type="line" smooth="no"/>
      <point x="83" y="1" type="line" smooth="no"/>
      <point x="65" y="630" type="line" smooth="no"/>
      <point x="229" y="633" type="line" smooth="no"/>
      <point x="236" y="261" type="line" smooth="no"/>
      <point x="440" y="636" type="line" smooth="no"/>
      <point x="608" y="640" type="line" smooth="no"/>
    </contour>
  </outline>
</glyph>
<glyph name="braceleft" format="1">
  <advance width="338"/>
  <unicode hex="007b"/>
  <outline>
    <contour>
      <point x="255" y="512" type="line" smooth="no"/>
      <point x="254" y="457" type="line" smooth="yes"/>
      <point x="253" y="441"/>
      <point x="232" y="411" type="qcurve" smooth="no"/>
      <point x="176" y="337" type="line" smooth="no"/>
      <point x="241" y="239"/>
      <point x="241" y="226" type="qcurve" smooth="yes"/>
      <point x="241" y="158"/>
      <point x="245" y="137" type="qcurve" smooth="yes"/>
      <point x="252" y="98"/>
      <point x="279" y="85" type="qcurve" smooth="no"/>
      <point x="276" y="-68" type="line" smooth="no"/>
      <point x="225" y="-58"/>
      <point x="189" y="-37" type="qcurve" smooth="yes"/>
      <point x="102" y="14"/>
      <point x="103" y="114" type="qcurve" smooth="yes"/>
      <point x="103" y="159"/>
      <point x="102" y="173" type="qcurve" smooth="no"/>
      <point x="102" y="200"/>
      <point x="30" y="342" type="qcurve" smooth="no"/>
      <point x="82" y="427" type="line" smooth="yes"/>
      <point x="117" y="486"/>
      <point x="116" y="497" type="qcurve" smooth="no"/>
      <point x="118" y="553" type="line" smooth="yes"/>
      <point x="121" y="653"/>
      <point x="213" y="697" type="qcurve" smooth="yes"/>
      <point x="251" y="716"/>
      <point x="304" y="722" type="qcurve" smooth="no"/>
      <point x="296" y="568" type="line" smooth="no"/>
      <point x="278" y="562"/>
      <point x="271" y="554" type="qcurve" smooth="yes"/>
      <point x="258" y="541"/>
      <point x="254" y="512" type="qcurve" smooth="no"/>
    </contour>
  </outline>
</glyph>
<glyph name="bar" format="1">
  <advance width="328"/>
  <unicode hex="007c"/>
  <outline>
    <contour>
      <point x="177" y="-8" type="line" smooth="no"/>
      <point x="44" y="-12" type="line" smooth="no"/>
      <point x="139" y="643" type="line" smooth="no"/>
      <point x="278" y="660" type="line" smooth="no"/>
    </contour>
  </outline>
</glyph>
<glyph name="asciitilde" format="1">
  <advance width="428"/>
  <unicode hex="007e"/>
  <outline>
    <contour>
      <point x="57" y="247" type="line" smooth="no"/>
      <point x="72" y="257"/>
      <point x="106" y="265" type="qcurve" smooth="no"/>
      <point x="132" y="270"/>
      <point x="145" y="270" type="qcurve" smooth="yes"/>
      <point x="209" y="270"/>
      <point x="279" y="243"/>
      <point x="328" y="243" type="qcurve" smooth="yes"/>
      <point x="343" y="243"/>
      <point x="358" y="253" type="qcurve" smooth="yes"/>
      <point x="370" y="260"/>
      <point x="381" y="268" type="qcurve" smooth="no"/>
      <point x="367" y="141" type="line" smooth="no"/>
      <point x="322" y="119"/>
      <point x="305" y="119" type="qcurve" smooth="yes"/>
      <point x="289" y="119"/>
      <point x="247" y="135" type="qcurve" smooth="yes"/>
      <point x="201" y="153"/>
      <point x="174" y="153" type="qcurve" smooth="yes"/>
      <point x="124" y="153"/>
      <point x="47" y="129" type="qcurve" smooth="no"/>
      <point x="57" y="247" type="line" smooth="no"/>
    </contour>
  </outline>
</glyph>
<glyph name="Acircumflex" format="1">
  <advance width="604"/>
  <unicode hex="00c2"/>
  <outline>
    <contour>
      <point x="358" y="392" type="line" smooth="no"/>
      <point x="290" y="231" type="line" smooth="no"/>
      <point x="370" y="226" type="line" smooth="no"/>
    </contour>
    <contour>
      <point x="347" y="695" type="line" smooth="yes"/>
      <point x="347" y="700"/>
      <point x="411" y="734" type="qcurve" smooth="yes"/>
      <point x="476" y="768" type="line" smooth="no"/>
      <point x="593" y="719" type="line" smooth="no"/>
      <point x="552" y="640" type="line" smooth="no"/>
      <point x="457" y="678" type="line" smooth="no"/>
      <point x="382" y="630" type="line" smooth="no"/>
      <point x="458" y="633" type="line" smooth="no"/>
      <point x="547" y="9" type="line" smooth="no"/>
      <point x="387" y="4" type="line" smooth="no"/>
      <point x="379" y="110" type="line" smooth="no"/>
      <point x="222" y="112" type="line" smooth="no"/>
      <point x="164" y="-1" type="line" smooth="no"/>
      <point x="-6" y="-3" type="line" smooth="no"/>
      <point x="322" y="629" type="line" smooth="no"/>
      <point x="336" y="629" type="line" smooth="no"/>
    </contour>
  </outline>
</glyph>
<glyph name="AE" format="1">
  <advance width="796"/>
  <unicode hex="00c6"/>
  <outline>
    <contour>
      <point x="453" y="446" type="line" smooth="no"/>
      <point x="321" y="226" type="line" smooth="no"/>
      <point x="409" y="224" type="line" smooth="no"/>
    </contour>
    <contour>
      <point x="747" y="503" type="line" smooth="no"/>
      <point x="613" y="498" type="line" smooth="no"/>
      <point x="595" y="381" type="line" smooth="no"/>
      <point x="728" y="386" type="line" smooth="no"/>
      <point x="708" y="262" type="line" smooth="no"/>
      <point x="572" y="258" type="line" smooth="no"/>
      <point x="558" y="142" type="line" smooth="no"/>
      <point x="689" y="145" type="line" smooth="no"/>
      <point x="663" y="6" type="line" smooth="no"/>
      <point x="628" y="5"/>
      <point x="517" y="3" type="qcurve" smooth="yes"/>
      <point x="423" y="2"/>
      <point x="380" y="2" type="qcurve" smooth="no"/>
      <point x="398" y="111" type="line" smooth="no"/>
      <point x="279" y="112" type="line" smooth="no"/>
      <point x="222" y="-1" type="line" smooth="no"/>
      <point x="35" y="-3" type="line" smooth="no"/>
      <point x="293" y="432" type="line" smooth="yes"/>
      <point x="391" y="604"/>
      <point x="402" y="632" type="qcurve" smooth="no"/>
      <point x="764" y="636" type="line" smooth="no"/>
    </contour>
  </outline>
</glyph>
<glyph name="Edieresis" format="1">
  <advance width="434"/>
  <unicode hex="00cb"/>
  <outline>
    <contour>
      <point x="304" y="705" type="line" smooth="no"/>
      <point x="442" y="709" type="line" smooth="no"/>
      <point x="428" y="596" type="line" smooth="no"/>
      <point x="402" y="595" type="line" smooth="no"/>
      <point x="390" y="501" type="line" smooth="no"/>
      <point x="256" y="496" type="line" smooth="no"/>
      <point x="238" y="380" type="line" smooth="no"/>
      <point x="371" y="384" type="line" smooth="no"/>
      <point x="351" y="260" type="line" smooth="no"/>
      <point x="214" y="256" type="line" smooth="no"/>
      <point x="201" y="140" type="line" smooth="no"/>
      <point x="332" y="143" type="line" smooth="no"/>
      <point x="305" y="4" type="line" smooth="no"/>
      <point x="30" y="1" type="line" smooth="no"/>
      <point x="54" y="131"/>
      <point x="124" y="594" type="qcurve" smooth="no"/>
      <point x="69" y="595" type="line" smooth="no"/>
      <point x="84" y="698" type="line" smooth="no"/>
      <point x="217" y="705" type="line" smooth="no"/>
      <point x="206" y="632" type="line" smooth="no"/>
      <point x="296" y="633" type="line" smooth="no"/>
    </contour>
  </outline>
</glyph>
<glyph name="Igrave" format="1">
  <advance width="307"/>
  <unicode hex="00cc"/>
  <outline>
    <contour>
      <point x="183" y="-3" type="line" smooth="no"/>
      <point x="41" y="-3" type="line" smooth="no"/>
      <point x="133" y="624" type="line" smooth="no"/>
      <point x="168" y="627" type="line" smooth="no"/>
      <point x="110" y="709" type="line" smooth="no"/>
      <point x="211" y="711" type="line" smooth="no"/>
      <point x="240" y="627" type="line" smooth="no"/>
      <point x="277" y="629" type="line" smooth="no"/>
    </contour>
  </outline>
</glyph>
<glyph name="Iacute" format="1">
  <advance width="312"/>
  <unicode hex="00cd"/>
  <outline>
    <contour>
      <point x="183" y="-3" type="line" smooth="no"/>
      <point x="41" y="-3" type="line" smooth="no"/>
      <point x="131" y="623" type="line" smooth="no"/>
      <point x="184" y="625" type="line" smooth="no"/>
      <point x="199" y="713" type="line" smooth="no"/>
      <point x="306" y="716" type="line" smooth="no"/>
      <point x="246" y="623" type="line" smooth="no"/>
      <point x="276" y="624" type="line" smooth="no"/>
    </contour>
  </outline>
</glyph>
<glyph name="Icircumflex" format="1">
  <advance width="320"/>
  <unicode hex="00ce"/>
  <outline>
    <contour>
      <point x="112" y="679" type="line" smooth="no"/>
      <point x="178" y="721"/>
      <point x="256" y="763" type="qcurve" smooth="no"/>
      <point x="360" y="714" type="line" smooth="no"/>
      <point x="314" y="625" type="line" smooth="no"/>
      <point x="289" y="634"/>
      <point x="247" y="647" type="qcurve" smooth="no"/>
      <point x="235" y="639"/>
      <point x="190" y="611" type="qcurve" smooth="no"/>
      <point x="274" y="610" type="line" smooth="no"/>
      <point x="183" y="-3" type="line" smooth="no"/>
      <point x="41" y="-3" type="line" smooth="no"/>
      <point x="134" y="598" type="line" smooth="no"/>
    </contour>
  </outline>
</glyph>
<glyph name="Idieresis" format="1">
  <advance width="323"/>
  <unicode hex="00cf"/>
  <outline>
    <contour>
      <point x="271" y="718" type="line" smooth="no"/>
      <point x="404" y="721" type="line" smooth="no"/>
      <point x="388" y="596" type="line" smooth="no"/>
      <point x="287" y="591" type="line" smooth="no"/>
      <point x="199" y="-3" type="line" smooth="no"/>
      <point x="57" y="-3" type="line" smooth="no"/>
      <point x="142" y="597" type="line" smooth="no"/>
      <point x="35" y="592" type="line" smooth="no"/>
      <point x="54" y="711" type="line" smooth="no"/>
      <point x="184" y="718" type="line" smooth="no"/>
      <point x="171" y="624" type="line" smooth="no"/>
      <point x="262" y="628" type="line" smooth="no"/>
    </contour>
  </outline>
</glyph>
<glyph name="Otilde" format="1">
  <advance width="488"/>
  <unicode hex="00d5"/>
  <outline>
    <contour>
      <point x="227" y="414" type="qcurve" smooth="no"/>
      <point x="226" y="414" type="line" smooth="no"/>
      <point x="218" y="391"/>
      <point x="200" y="284" type="qcurve" smooth="yes"/>
      <point x="183" y="183"/>
      <point x="183" y="169" type="qcurve" smooth="yes"/>
      <point x="183" y="138"/>
      <point x="213" y="138" type="qcurve" smooth="yes"/>
      <point x="242" y="138"/>
      <point x="256" y="154" type="qcurve" smooth="yes"/>
      <point x="267" y="166"/>
      <point x="267" y="181" type="qcurve" smooth="yes"/>
      <point x="267" y="185"/>
      <point x="266" y="194" type="qcurve" smooth="no"/>
      <point x="313" y="454" type="line" smooth="no"/>
      <point x="304" y="462"/>
      <point x="288" y="462" type="qcurve" smooth="yes"/>
      <point x="269" y="462"/>
      <point x="231" y="431"/>
    </contour>
    <contour>
      <point x="140" y="703" type="line" smooth="no"/>
      <point x="180" y="731"/>
      <point x="226" y="731" type="qcurve" smooth="yes"/>
      <point x="290" y="731"/>
      <point x="359" y="704"/>
      <point x="408" y="704" type="qcurve" smooth="yes"/>
      <point x="424" y="704"/>
      <point x="439" y="714" type="qcurve" smooth="yes"/>
      <point x="462" y="729" type="line" smooth="no"/>
      <point x="452" y="611" type="line" smooth="no"/>
      <point x="436" y="593"/>
      <point x="410" y="591" type="qcurve" smooth="no"/>
      <point x="458" y="568"/>
      <point x="460" y="512" type="qcurve" smooth="no"/>
      <point x="437" y="369"/>
      <point x="395" y="130" type="qcurve" smooth="yes"/>
      <point x="385" y="76"/>
      <point x="351" y="37" type="qcurve" smooth="yes"/>
      <point x="301" y="-19"/>
      <point x="212" y="-19" type="qcurve" smooth="yes"/>
      <point x="43" y="-19"/>
      <point x="37" y="105" type="qcurve" smooth="yes"/>
      <point x="36" y="115"/>
      <point x="37" y="126" type="qcurve" smooth="yes"/>
      <point x="38" y="139"/>
      <point x="38" y="163"/>
      <point x="51" y="250" type="qcurve" smooth="yes"/>
      <point x="67" y="363"/>
      <point x="91" y="460" type="qcurve" smooth="yes"/>
      <point x="119" y="576"/>
      <point x="227" y="600" type="qcurve" smooth="no"/>
      <point x="212" y="606"/>
      <point x="189" y="606" type="qcurve" smooth="yes"/>
      <point x="161" y="606"/>
      <point x="128" y="598" type="qcurve" smooth="no"/>
    </contour>
  </outline>
</glyph>
<glyph name="Uacute" format="1">
  <advance width="528"/>
  <unicode hex="00da"/>
  <outline>
    <contour>
      <point x="214" y="630" type="line" smooth="no"/>
      <point x="268" y="758" type="line" smooth="no"/>
      <point x="389" y="756" type="line" smooth="no"/>
      <point x="272" y="607" type="line" smooth="no"/>
      <point x="251" y="609" type="line" smooth="no"/>
      <point x="227" y="411"/>
      <point x="217" y="303" type="qcurve" smooth="yes"/>
      <point x="214" y="273" type="line" smooth="yes"/>
      <point x="212" y="251"/>
      <point x="212" y="233" type="qcurve" smooth="yes"/>
      <point x="212" y="162"/>
      <point x="256" y="162" type="qcurve" smooth="yes"/>
      <point x="289" y="162"/>
      <point x="298" y="232" type="qcurve" smooth="yes"/>
      <point x="353" y="635" type="line" smooth="no"/>
      <point x="500" y="635" type="line" smooth="no"/>
      <point x="423" y="137" type="line" smooth="yes"/>
      <point x="415" y="86"/>
      <point x="364" y="47" type="qcurve" smooth="yes"/>
      <point x="307" y="2"/>
      <point x="227" y="2" type="qcurve" smooth="yes"/>
      <point x="113" y="2"/>
      <point x="69" y="73" type="qcurve" smooth="yes"/>
      <point x="46" y="110"/>
      <point x="46" y="161" type="qcurve" smooth="yes"/>
      <point x="46" y="176"/>
      <point x="108" y="628" type="qcurve" smooth="no"/>
    </contour>
  </outline>
</glyph>
<glyph name="eacute" format="1">
  <advance width="459"/>
  <unicode hex="00e9"/>
  <outline>
    <contour>
      <point x="350" y="627" type="line" smooth="no"/>
      <point x="435" y="632" type="line" smooth="no"/>
      <point x="412" y="483" type="line" smooth="no"/>
      <point x="273" y="481" type="line" smooth="no"/>
      <point x="257" y="369" type="line" smooth="no"/>
      <point x="399" y="371" type="line" smooth="no"/>
      <point x="380" y="239" type="line" smooth="no"/>
      <point x="237" y="235" type="line" smooth="no"/>
      <point x="223" y="131" type="line" smooth="no"/>
      <point x="369" y="136" type="line" smooth="no"/>
      <point x="352" y="-2" type="line" smooth="no"/>
      <point x="43" y="0" type="line" smooth="no"/>
      <point x="138" y="630" type="line" smooth="no"/>
      <point x="207" y="632" type="line" smooth="no"/>
      <point x="219" y="695" type="line" smooth="no"/>
      <point x="365" y="696" type="line" smooth="no"/>
    </contour>
  </outline>
</glyph>
<glyph name="ecircumflex" format="1">
  <advance width="434"/>
  <unicode hex="00ea"/>
  <outline>
    <contour>
      <point x="156" y="622" type="line" smooth="no"/>
      <point x="166" y="698" type="line" smooth="no"/>
      <point x="295" y="768" type="line" smooth="no"/>
      <point x="410" y="719" type="line" smooth="no"/>
      <point x="371" y="638" type="line" smooth="no"/>
      <point x="277" y="680" type="line" smooth="no"/>
      <point x="195" y="623" type="line" smooth="no"/>
      <point x="251" y="624"/>
      <point x="406" y="624" type="qcurve" smooth="no"/>
      <point x="390" y="496" type="line" smooth="no"/>
      <point x="255" y="491" type="line" smooth="no"/>
      <point x="238" y="375" type="line" smooth="no"/>
      <point x="371" y="379" type="line" smooth="no"/>
      <point x="351" y="255" type="line" smooth="no"/>
      <point x="214" y="251" type="line" smooth="no"/>
      <point x="200" y="135" type="line" smooth="no"/>
      <point x="332" y="138" type="line" smooth="no"/>
      <point x="305" y="4" type="line" smooth="no"/>
      <point x="30" y="1" type="line" smooth="no"/>
      <point x="45" y="83"/>
      <point x="129" y="622" type="qcurve" smooth="no"/>
    </contour>
  </outline>
</glyph>
<glyph name="ntilde" format="1">
  <advance width="559"/>
  <unicode hex="00f1"/>
  <outline>
    <contour>
      <point x="182" y="627" type="line" smooth="no"/>
      <point x="195" y="724" type="line" smooth="no"/>
      <point x="220" y="735"/>
      <point x="275" y="752" type="qcurve" smooth="yes"/>
      <point x="284" y="754"/>
      <point x="297" y="754" type="qcurve" smooth="yes"/>
      <point x="313" y="754"/>
      <point x="385" y="745" type="line" smooth="no"/>
      <point x="410" y="745"/>
      <point x="457" y="753" type="qcurve" smooth="no"/>
      <point x="514" y="765" type="line" smooth="no"/>
      <point x="503" y="673" type="line" smooth="no"/>
      <point x="459" y="658"/>
      <point x="439" y="658" type="qcurve" smooth="yes"/>
      <point x="403" y="658"/>
      <point x="343" y="662" type="qcurve" smooth="yes"/>
      <point x="313" y="663"/>
      <point x="293" y="658" type="qcurve" smooth="yes"/>
      <point x="257" y="648"/>
      <point x="239" y="630" type="qcurve" smooth="no"/>
      <point x="282" y="630" type="line" smooth="no"/>
      <point x="351" y="466" type="line" smooth="no"/>
      <point x="393" y="630" type="line" smooth="no"/>
      <point x="546" y="631" type="line" smooth="no"/>
      <point x="422" y="0" type="line" smooth="no"/>
      <point x="262" y="0" type="line" smooth="no"/>
      <point x="304" y="194" type="line" smooth="no"/>
      <point x="248" y="298" type="line" smooth="no"/>
      <point x="188" y="0" type="line" smooth="no"/>
      <point x="35" y="-7" type="line" smooth="no"/>
      <point x="146" y="626" type="line" smooth="no"/>
    </contour>
  </outline>
</glyph>
<glyph name="divide" format="1">
  <advance width="445"/>
  <unicode hex="00f7"/>
  <outline>
    <contour>
      <point x="399" y="294" type="line" smooth="no"/>
      <point x="385" y="172" type="line" smooth="no"/>
      <point x="62" y="156" type="line" smooth="no"/>
      <point x="72" y="268" type="line" smooth="no"/>
    </contour>
    <contour>
      <point x="271" y="10" type="line" smooth="no"/>
      <point x="133" y="0" type="line" smooth="no"/>
      <point x="142" y="128" type="line" smooth="no"/>
      <point x="276" y="133" type="line" smooth="no"/>
    </contour>
    <contour>
      <point x="306" y="320" type="line" smooth="no"/>
      <point x="172" y="309" type="line" smooth="no"/>
      <point x="183" y="434" type="line" smooth="no"/>
      <point x="316" y="439" type="line" smooth="no"/>
    </contour>
  </outline>
</glyph>
<glyph name="ucircumflex" format="1">
  <advance width="528"/>
  <unicode hex="00fb"/>
  <outline>
    <contour>
      <point x="127" y="632" type="line" smooth="no"/>
      <point x="135" y="700" type="line" smooth="no"/>
      <point x="266" y="768" type="line" smooth="no"/>
      <point x="378" y="718" type="line" smooth="no"/>
      <point x="341" y="642" type="line" smooth="no"/>
      <point x="247" y="678" type="line" smooth="no"/>
      <point x="180" y="632" type="line" smooth="no"/>
      <point x="253" y="635" type="line" smooth="no"/>
      <point x="214" y="278" type="line" smooth="yes"/>
      <point x="212" y="256"/>
      <point x="212" y="238" type="qcurve" smooth="yes"/>
      <point x="212" y="167"/>
      <point x="256" y="167" type="qcurve" smooth="yes"/>
      <point x="289" y="167"/>
      <point x="298" y="237" type="qcurve" smooth="yes"/>
      <point x="350" y="635" type="line" smooth="no"/>
      <point x="499" y="642" type="line" smooth="no"/>
      <point x="462" y="378"/>
      <point x="423" y="141" type="qcurve" smooth="yes"/>
      <point x="415" y="91"/>
      <point x="364" y="51" type="qcurve" smooth="yes"/>
      <point x="307" y="7"/>
      <point x="227" y="7" type="qcurve" smooth="yes"/>
      <point x="113" y="7"/>
      <point x="69" y="78" type="qcurve" smooth="yes"/>
      <point x="46" y="115"/>
      <point x="46" y="166" type="qcurve" smooth="no"/>
      <point x="54" y="231"/>
      <point x="107" y="632" type="qcurve" smooth="no"/>
    </contour>
  </outline>
</glyph>
<glyph name="udieresis" format="1">
  <advance width="558"/>
  <unicode hex="00fc"/>
  <outline>
    <contour>
      <point x="423" y="131" type="line" smooth="yes"/>
      <point x="415" y="80"/>
      <point x="364" y="41" type="qcurve" smooth="yes"/>
      <point x="307" y="-3"/>
      <point x="227" y="-3" type="qcurve" smooth="yes"/>
      <point x="113" y="-3"/>
      <point x="69" y="67" type="qcurve" smooth="yes"/>
      <point x="46" y="105"/>
      <point x="46" y="155" type="qcurve" smooth="no"/>
      <point x="61" y="301"/>
      <point x="78" y="416" type="qcurve" smooth="yes"/>
      <point x="105" y="594" type="line" smooth="no"/>
      <point x="178" y="593" type="line" smooth="no"/>
      <point x="180" y="606" type="line" smooth="no"/>
      <point x="127" y="607" type="line" smooth="no"/>
      <point x="142" y="707" type="line" smooth="no"/>
      <point x="282" y="711" type="line" smooth="no"/>
      <point x="267" y="605" type="line" smooth="yes"/>
      <point x="266" y="605"/>
      <point x="220" y="606" type="qcurve" smooth="no"/>
      <point x="220" y="591"/>
      <point x="219" y="591" type="qcurve" smooth="yes"/>
      <point x="250" y="591" type="line" smooth="no"/>
      <point x="226" y="392"/>
      <point x="216" y="290" type="qcurve" smooth="no"/>
      <point x="215" y="267" type="line" smooth="no"/>
      <point x="212" y="245"/>
      <point x="212" y="227" type="qcurve" smooth="yes"/>
      <point x="212" y="156"/>
      <point x="256" y="156" type="qcurve" smooth="yes"/>
      <point x="289" y="156"/>
      <point x="298" y="226" type="qcurve" smooth="yes"/>
      <point x="349" y="593" type="line" smooth="no"/>
      <point x="411" y="594" type="line" smooth="no"/>
      <point x="412" y="606" type="line" smooth="no"/>
      <point x="366" y="605" type="line" smooth="no"/>
      <point x="383" y="711" type="line" smooth="no"/>
      <point x="522" y="716" type="line" smooth="no"/>
      <point x="512" y="606" type="line" smooth="no"/>
      <point x="457" y="606" type="line" smooth="no"/>
      <point x="456" y="593" type="line" smooth="no"/>
      <point x="499" y="593"/>
      <point x="494" y="592" type="qcurve" smooth="no"/>
    </contour>
  </outline>
</glyph>
<glyph name="oe" format="1">
  <advance width="653"/>
  <unicode hex="0153"/>
  <outline>
    <contour>
      <point x="227" y="428" type="qcurve" smooth="no"/>
      <point x="226" y="428" type="line" smooth="no"/>
      <point x="218" y="406"/>
      <point x="200" y="298" type="qcurve" smooth="yes"/>
      <point x="183" y="197"/>
      <point x="183" y="183" type="qcurve" smooth="yes"/>
      <point x="183" y="153"/>
      <point x="213" y="153" type="qcurve" smooth="yes"/>
      <point x="242" y="153"/>
      <point x="256" y="169" type="qcurve" smooth="yes"/>
      <point x="267" y="181"/>
      <point x="267" y="195" type="qcurve" smooth="yes"/>
      <point x="267" y="199"/>
      <point x="266" y="208" type="qcurve" smooth="no"/>
      <point x="313" y="469" type="line" smooth="no"/>
      <point x="304" y="476"/>
      <point x="288" y="476" type="qcurve" smooth="yes"/>
      <point x="269" y="476"/>
      <point x="231" y="445"/>
    </contour>
    <contour>
      <point x="601" y="501" type="line" smooth="no"/>
      <point x="467" y="496" type="line" smooth="no"/>
      <point x="449" y="380" type="line" smooth="no"/>
      <point x="582" y="384" type="line" smooth="no"/>
      <point x="562" y="260" type="line" smooth="no"/>
      <point x="426" y="256" type="line" smooth="no"/>
      <point x="412" y="140" type="line" smooth="no"/>
      <point x="543" y="143" type="line" smooth="no"/>
      <point x="517" y="4" type="line" smooth="no"/>
      <point x="472" y="3"/>
      <point x="364" y="0" type="qcurve" smooth="yes"/>
      <point x="266" y="-3"/>
      <point x="212" y="-3" type="qcurve" smooth="yes"/>
      <point x="43" y="-3"/>
      <point x="37" y="120" type="qcurve" smooth="yes"/>
      <point x="36" y="129"/>
      <point x="37" y="141" type="qcurve" smooth="yes"/>
      <point x="38" y="154"/>
      <point x="38" y="153" type="qcurve" smooth="no"/>
      <point x="38" y="177"/>
      <point x="51" y="265" type="qcurve" smooth="yes"/>
      <point x="67" y="378"/>
      <point x="91" y="474" type="qcurve" smooth="yes"/>
      <point x="113" y="564"/>
      <point x="206" y="606" type="qcurve" smooth="yes"/>
      <point x="267" y="634"/>
      <point x="306" y="632" type="qcurve" smooth="no"/>
      <point x="446" y="632"/>
      <point x="618" y="634" type="qcurve" smooth="no"/>
    </contour>
  </outline>
</glyph>
<glyph name="ring" format="1">
  <advance width="961"/>
  <unicode hex="02da"/>
  <outline>
    <contour>
      <point x="506" y="597" type="qcurve" smooth="yes"/>
      <point x="506" y="552"/>
      <point x="443" y="488"/>
      <point x="398" y="488" type="qcurve" smooth="yes"/>
      <point x="353" y="488"/>
      <point x="289" y="552"/>
      <point x="289" y="597" type="qcurve" smooth="yes"/>
      <point x="289" y="642"/>
      <point x="353" y="705"/>
      <point x="398" y="705" type="qcurve" smooth="yes"/>
      <point x="443" y="705"/>
      <point x="506" y="642"/>
    </contour>
    <contour>
      <point x="427" y="598" type="qcurve" smooth="yes"/>
      <point x="427" y="624"/>
      <point x="401" y="624" type="qcurve" smooth="yes"/>
      <point x="375" y="624"/>
      <point x="375" y="598" type="qcurve" smooth="yes"/>
      <point x="375" y="573"/>
      <point x="401" y="573" type="qcurve" smooth="yes"/>
      <point x="427" y="573"/>
    </contour>
  </outline>
</glyph>
<glyph name="tilde" format="1">
  <advance width="604"/>
  <unicode hex="02dc"/>
  <outline>
    <contour>
      <point x="243" y="679" type="line" smooth="no"/>
      <point x="258" y="690"/>
      <point x="292" y="697" type="qcurve" smooth="yes"/>
      <point x="318" y="702"/>
      <point x="331" y="702" type="qcurve" smooth="yes"/>
      <point x="396" y="702"/>
      <point x="465" y="675"/>
      <point x="514" y="675" type="qcurve" smooth="yes"/>
      <point x="529" y="675"/>
      <point x="545" y="685" type="qcurve" smooth="yes"/>
      <point x="556" y="693"/>
      <point x="568" y="700" type="qcurve" smooth="no"/>
      <point x="553" y="582" type="line" smooth="no"/>
      <point x="508" y="560"/>
      <point x="492" y="560" type="qcurve" smooth="yes"/>
      <point x="476" y="560"/>
      <point x="433" y="576" type="qcurve" smooth="yes"/>
      <point x="387" y="594"/>
      <point x="360" y="594" type="qcurve" smooth="yes"/>
      <point x="310" y="594"/>
      <point x="233" y="570" type="qcurve" smooth="no"/>
      <point x="243" y="679" type="line" smooth="no"/>
    </contour>
  </outline>
</glyph>
<glyph name="emdash" format="1">
  <advance width="783"/>
  <unicode hex="2014"/>
  <outline>
    <contour>
      <point x="715" y="264" type="line" smooth="no"/>
      <point x="699" y="126" type="line" smooth="no"/>
      <point x="61" y="101" type="line" smooth="no"/>
      <point x="72" y="224" type="line" smooth="no"/>
    </contour>
  </outline>
</glyph>
<glyph name="quoteleft" format="1">
  <advance width="258"/>
  <unicode hex="2018"/>
  <outline>
    <contour>
      <point x="73" y="369" type="qcurve" smooth="no"/>
      <point x="72" y="387"/>
      <point x="59" y="505" type="qcurve" smooth="yes"/>
      <point x="51" y="583"/>
      <point x="53" y="644" type="qcurve" smooth="no"/>
      <point x="152" y="638"/>
      <point x="196" y="637" type="qcurve" smooth="no"/>
      <point x="201" y="498"/>
      <point x="200" y="483" type="qcurve" smooth="no"/>
      <point x="145" y="478"/>
      <point x="144" y="478" type="qcurve" smooth="yes"/>
      <point x="154" y="370" type="line" smooth="no"/>
      <point x="71" y="369"/>
    </contour>
  </outline>
</glyph>
<glyph name="quotedblright" format="1">
  <advance width="456"/>
  <unicode hex="201d"/>
  <outline>
    <contour>
      <point x="171" y="359" type="qcurve" smooth="no"/>
      <point x="121" y="354"/>
      <point x="88" y="358" type="qcurve" smooth="no"/>
      <point x="112" y="475" type="line" smooth="no"/>
      <point x="92" y="475"/>
      <point x="68" y="477"/>
      <point x="57" y="477" type="qcurve" smooth="no"/>
      <point x="58" y="525"/>
      <point x="72" y="622" type="qcurve" smooth="no"/>
      <point x="118" y="623"/>
      <point x="220" y="630" type="qcurve" smooth="no"/>
      <point x="215" y="570"/>
      <point x="199" y="494" type="qcurve" smooth="yes"/>
      <point x="174" y="377"/>
    </contour>
    <contour>
      <point x="373" y="359" type="qcurve" smooth="no"/>
      <point x="323" y="354"/>
      <point x="290" y="358" type="qcurve" smooth="no"/>
      <point x="313" y="475" type="line" smooth="no"/>
      <point x="294" y="475"/>
      <point x="270" y="477"/>
      <point x="258" y="477" type="qcurve" smooth="no"/>
      <point x="260" y="525"/>
      <point x="274" y="622" type="qcurve" smooth="no"/>
      <point x="319" y="623"/>
      <point x="421" y="630" type="qcurve" smooth="no"/>
      <point x="417" y="570"/>
      <point x="401" y="494" type="qcurve" smooth="yes"/>
      <point x="376" y="377"/>
    </contour>
  </outline>
</glyph>
<glyph name="quotedblbase" format="1">
  <advance width="497"/>
  <unicode hex="201e"/>
  <outline>
    <contour>
      <point x="210" y="-48" type="qcurve" smooth="no"/>
      <point x="196" y="-88"/>
      <point x="180" y="-110" type="qcurve" smooth="no"/>
      <point x="134" y="-116"/>
      <point x="107" y="-113" type="qcurve" smooth="no"/>
      <point x="131" y="5" type="line" smooth="no"/>
      <point x="114" y="4"/>
      <point x="48" y="4" type="qcurve" smooth="no"/>
      <point x="49" y="57"/>
      <point x="57" y="152" type="qcurve" smooth="no"/>
      <point x="105" y="153"/>
      <point x="210" y="160" type="qcurve" smooth="no"/>
      <point x="208" y="132"/>
      <point x="214" y="46" type="qcurve" smooth="no"/>
      <point x="214" y="9"/>
    </contour>
    <contour>
      <point x="431" y="-48" type="qcurve" smooth="no"/>
      <point x="416" y="-88"/>
      <point x="401" y="-110" type="qcurve" smooth="no"/>
      <point x="355" y="-116"/>
      <point x="328" y="-113" type="qcurve" smooth="no"/>
      <point x="352" y="5" type="line" smooth="no"/>
      <point x="335" y="4"/>
      <point x="269" y="4" type="qcurve" smooth="no"/>
      <point x="270" y="57"/>
      <point x="278" y="152" type="qcurve" smooth="no"/>
      <point x="326" y="153"/>
      <point x="431" y="160" type="qcurve" smooth="no"/>
      <point x="429" y="133"/>
      <point x="435" y="48" type="qcurve" smooth="no"/>
      <point x="435" y="10"/>
    </contour>
  </outline>
</glyph>
<glyph name="bullet" format="1">
  <advance width="319"/>
  <unicode hex="2022"/>
  <outline>
    <contour>
      <point x="256" y="251" type="qcurve" smooth="yes"/>
      <point x="256" y="210"/>
      <point x="198" y="153"/>
      <point x="158" y="153" type="qcurve" smooth="yes"/>
      <point x="117" y="153"/>
      <point x="60" y="210"/>
      <point x="60" y="251" type="qcurve" smooth="yes"/>
      <point x="60" y="291"/>
      <point x="117" y="349"/>
      <point x="158" y="349" type="qcurve" smooth="yes"/>
      <point x="198" y="349"/>
      <point x="256" y="291"/>
    </contour>
  </outline>
</glyph>
<glyph name="ellipsis" format="1">
  <advance width="746"/>
  <unicode hex="2026"/>
  <outline>
    <contour>
      <point x="403" y="7" type="line" smooth="no"/>
      <point x="251" y="-4" type="line" smooth="no"/>
      <point x="271" y="141" type="line" smooth="no"/>
      <point x="423" y="146" type="line" smooth="no"/>
    </contour>
    <contour>
      <point x="190" y="7" type="line" smooth="no"/>
      <point x="37" y="-4" type="line" smooth="no"/>
      <point x="58" y="141" type="line" smooth="no"/>
      <point x="209" y="146" type="line" smooth="no"/>
    </contour>
    <contour>
      <point x="615" y="7" type="line" smooth="no"/>
      <point x="462" y="-4" type="line" smooth="no"/>
      <point x="482" y="141" type="line" smooth="no"/>
      <point x="634" y="146" type="line" smooth="no"/>
    </contour>
  </outline>
</glyph>
<glyph name="Euro" format="1">
  <advance width="521"/>
  <unicode hex="20ac"/>
  <outline>
    <contour>
      <point x="87" y="408" type="qcurve" smooth="no"/>
      <point x="140" y="414" type="line" smooth="no"/>
      <point x="147" y="453"/>
      <point x="161" y="511" type="qcurve" smooth="no"/>
      <point x="189" y="575"/>
      <point x="253" y="610" type="qcurve" smooth="no"/>
      <point x="310" y="640"/>
      <point x="377" y="640" type="qcurve" smooth="yes"/>
      <point x="470" y="640"/>
      <point x="520" y="588" type="qcurve" smooth="no"/>
      <point x="451" y="471" type="line" smooth="no"/>
      <point x="419" y="489"/>
      <point x="397" y="497"/>
      <point x="367" y="497" type="qcurve" smooth="yes"/>
      <point x="334" y="497"/>
      <point x="292" y="470"/>
      <point x="290" y="453" type="qcurve" smooth="no"/>
      <point x="284" y="420" type="line" smooth="no"/>
      <point x="337" y="424" type="line" smooth="no"/>
      <point x="333" y="392"/>
      <point x="328" y="344" type="qcurve" smooth="no"/>
      <point x="271" y="344" type="line" smooth="no"/>
      <point x="265" y="308" type="line" smooth="no"/>
      <point x="322" y="308" type="line" smooth="no"/>
      <point x="319" y="285"/>
      <point x="310" y="230" type="qcurve" smooth="no"/>
      <point x="253" y="232" type="line" smooth="no"/>
      <point x="245" y="194" type="line" smooth="yes"/>
      <point x="240" y="169"/>
      <point x="268" y="132"/>
      <point x="294" y="132" type="qcurve" smooth="yes"/>
      <point x="376" y="132"/>
      <point x="410" y="152" type="qcurve" smooth="no"/>
      <point x="461" y="39" type="line" smooth="no"/>
      <point x="358" y="-14"/>
      <point x="253" y="-14" type="qcurve" smooth="yes"/>
      <point x="168" y="-14"/>
      <point x="126" y="29" type="qcurve" smooth="yes"/>
      <point x="102" y="53"/>
      <point x="89" y="101" type="qcurve" smooth="no"/>
      <point x="96" y="140"/>
      <point x="109" y="230" type="qcurve" smooth="no"/>
      <point x="69" y="233" type="line" smooth="no"/>
      <point x="73" y="300" type="line" smooth="no"/>
      <point x="127" y="301" type="line" smooth="no"/>
      <point x="134" y="335" type="line" smooth="no"/>
      <point x="77" y="335" type="line" smooth="no"/>
      <point x="86" y="378"/>
    </contour>
  </outline>
</glyph>
<glyph name="arrowleft" format="1">
  <advance width="724"/>
  <unicode hex="2190"/>
  <outline>
    <contour>
      <point x="681" y="338" type="line" smooth="no"/>
      <point x="640" y="263" type="line" smooth="no"/>
      <point x="677" y="205" type="line" smooth="no"/>
      <point x="209" y="195" type="line" smooth="no"/>
      <point x="207" y="73" type="line" smooth="no"/>
      <point x="170" y="112"/>
      <point x="116" y="177" type="qcurve" smooth="yes"/>
      <point x="66" y="238"/>
      <point x="44" y="259" type="qcurve" smooth="no"/>
      <point x="217" y="449" type="line" smooth="no"/>
      <point x="208" y="330" type="line" smooth="no"/>
    </contour>
  </outline>
</glyph>
<glyph name="arrowup" format="1">
  <advance width="410"/>
  <unicode hex="2191"/>
  <outline>
    <contour>
      <point x="143" y="471" type="line" smooth="no"/>
      <point x="24" y="461" type="line" smooth="no"/>
      <point x="81" y="512"/>
      <point x="149" y="566" type="qcurve" smooth="yes"/>
      <point x="231" y="631"/>
      <point x="242" y="641" type="qcurve" smooth="no"/>
      <point x="286" y="600"/>
      <point x="400" y="471" type="qcurve" smooth="no"/>
      <point x="278" y="469" type="line" smooth="no"/>
      <point x="210" y="1" type="line" smooth="no"/>
      <point x="153" y="38" type="line" smooth="no"/>
      <point x="78" y="-3" type="line" smooth="no"/>
    </contour>
  </outline>
</glyph>
<glyph name="arrowleftright" format="1">
  <advance width="812"/>
  <unicode hex="2194"/>
  <outline>
    <contour>
      <point x="198" y="320" type="line" smooth="no"/>
      <point x="592" y="328" type="line" smooth="no"/>
      <point x="594" y="449" type="line" smooth="no"/>
      <point x="632" y="411"/>
      <point x="685" y="346" type="qcurve" smooth="yes"/>
      <point x="736" y="285"/>
      <point x="758" y="263" type="qcurve" smooth="no"/>
      <point x="585" y="73" type="line" smooth="no"/>
      <point x="594" y="193" type="line" smooth="no"/>
      <point x="200" y="185" type="line" smooth="no"/>
      <point x="198" y="64" type="line" smooth="no"/>
      <point x="160" y="102"/>
      <point x="107" y="167" type="qcurve" smooth="yes"/>
      <point x="56" y="228"/>
      <point x="34" y="250" type="qcurve" smooth="no"/>
      <point x="207" y="439" type="line" smooth="no"/>
    </contour>
  </outline>
</glyph>
